<?xml version="1.0" encoding="utf-8"?>
<svg width="125" height="58" viewBox="0 0 125 58" fill="none" xmlns="http://www.w3.org/2000/svg">
  <defs>
    <clipPath id="clip_path_1">
      <rect width="125" height="58" />
    </clipPath>
  </defs>
  <path d="M4.22727 46.5L4.22727 11.5909L8.45455 11.5909L8.45455 42.75L24.6818 42.75L24.6818 46.5L4.22727 46.5ZM33.6818 20.3182L39.9545 31.0227L46.2273 20.3182L50.8636 20.3182L42.4091 33.4091L50.8636 46.5L46.2273 46.5L39.9545 36.3409L33.6818 46.5L29.0455 46.5L37.3636 33.4091L29.0455 20.3182L33.6818 20.3182ZM81 22.5Q79.892 19.0568 77.3608 17.0625Q74.8295 15.0682 71.0455 15.0682Q67.9432 15.0682 65.4034 16.6705Q62.8636 18.2727 61.3636 21.392Q59.8636 24.5114 59.8636 29.0455Q59.8636 33.5795 61.3807 36.6989Q62.8977 39.8182 65.4886 41.4205Q68.0795 43.0227 71.3182 43.0227Q74.267 43.0227 76.5426 41.7699Q78.8182 40.517 80.1136 38.2244Q81.4091 35.9318 81.4773 32.7955L72.2727 32.7955L72.2727 29.0455L85.5682 29.0455L85.5682 32.7955Q85.5682 37.108 83.7358 40.2955Q81.9034 43.483 78.6903 45.2301Q75.4773 46.9773 71.3182 46.9773Q66.6818 46.9773 63.179 44.7955Q59.6761 42.6136 57.7244 38.5909Q55.7727 34.5682 55.7727 29.0455Q55.7727 23.5227 57.7244 19.5Q59.6761 15.4773 63.1278 13.2955Q66.5795 11.1136 71.0455 11.1136Q74.7273 11.1136 77.7273 12.554Q80.7273 13.9943 82.7216 16.5597Q84.7159 19.125 85.3636 22.5L81 22.5ZM92.25 46.5L92.25 11.5909L96.2727 11.5909L96.2727 31.9773L96.75 31.9773L108.205 20.3182L113.182 20.3182L102.119 31.5L114 46.5L108.886 46.5L99.0852 34.0909L96.2727 36.6989L96.2727 46.5L92.25 46.5Z" clip-path="url(#clip_path_1)" fill="#FFFFFF" />
</svg>